<svg width="532" height="60" viewBox="0 0 532 60" fill="none" xmlns="http://www.w3.org/2000/svg">
<g clip-path="url(#clip0_474_13663)">
<path d="M18.2158 59.9999H56.6239L24.4581 24.2378L18.2158 59.9999Z" fill="black"/>
<path d="M60.2869 60.0001H83.9449L30.916 27.3501L60.2869 60.0001Z" fill="black"/>
<path d="M1.99458 12.9849L0 28.6936L20.0443 21.1319L1.99458 12.9849Z" fill="black"/>
<path d="M0.369141 31.4606L15.8887 57.5164L21.8479 23.3628L0.369141 31.4606Z" fill="black"/>
<path d="M70.2846 14.883L7.75684 12.6028L23.8182 19.8563L70.2846 14.883Z" fill="black"/>
<path d="M87.4166 58.9462L87.9337 15.7334L27.7021 22.1734L87.4166 58.9462Z" fill="black"/>
<path d="M142.533 16.7379L125.942 60.0001H187.036L205.664 0.0185547L142.533 16.7379Z" fill="black"/>
<path d="M90.126 60.0001H101.466L90.5631 23.2273L90.126 60.0001Z" fill="black"/>
<path d="M190.618 57.6274L242.908 16.9351L208.514 0L190.618 57.6274Z" fill="black"/>
<path d="M215.335 60L239.805 22.802L192.003 60H215.335Z" fill="black"/>
<path d="M91.1475 15.6223L104.297 59.9999H123.024L139.559 16.9103L91.1475 15.6223Z" fill="black"/>
<path d="M248.104 42.4301L257.474 40.8032V44.8706C257.474 48.8085 259.974 50.6265 262.848 50.6265C266.099 50.6265 268.032 48.2477 268.032 44.9322V14.7227H277.906V45.1849C277.906 53.2518 271.719 60.0061 262.91 60.0061C254.101 60.0061 248.104 54.1886 248.104 45.3697V42.4301Z" fill="black"/>
<path d="M309.518 50.0596H292.398L289.209 59.0633H278.836L295.519 14.7166H306.951L323.443 59.0633H312.695L309.506 50.0596H309.518ZM295.648 41.0559H306.397L301.084 25.7355L295.648 41.0559Z" fill="black"/>
<path d="M321.387 36.9884C321.387 23.1655 331.883 13.7859 344.251 13.7859C357.56 13.7859 363.433 22.352 364.868 28.7366L355.56 31.6762C354.87 28.6133 352.063 23.4182 344.251 23.4182C338.316 23.4182 331.631 27.6704 331.631 36.9884C331.631 45.3081 337.756 50.1211 344.374 50.1211C352.057 50.1211 355.123 44.9938 355.997 41.8015L365.428 44.4884C363.994 50.6203 358.121 59.9999 344.374 59.9999C331.631 59.9999 321.381 50.8052 321.381 36.9823L321.387 36.9884Z" fill="black"/>
<path d="M366.745 36.9884C366.745 23.1655 377.242 13.7859 389.609 13.7859C402.919 13.7859 408.792 22.352 410.226 28.7366L400.918 31.6762C400.229 28.6133 397.421 23.4182 389.609 23.4182C383.675 23.4182 376.989 27.6704 376.989 36.9884C376.989 45.3081 383.115 50.1211 389.732 50.1211C397.415 50.1211 400.481 44.9938 401.355 41.8015L410.786 44.4884C409.352 50.6203 403.479 59.9999 389.732 59.9999C376.989 59.9999 366.739 50.8052 366.739 36.9823L366.745 36.9884Z" fill="black"/>
<path d="M429.778 17.083C429.673 16.436 429.131 15.4807 427.74 15.4807C426.687 15.4807 425.948 16.1833 425.948 16.9783C425.948 17.6377 426.361 18.1369 427.167 18.3156L428.663 18.6237C430.498 18.9935 431.477 20.1521 431.477 21.6188C431.477 23.2334 430.172 24.7741 427.795 24.7741C425.154 24.7741 423.942 23.0732 423.775 21.5756L425.419 21.1073C425.524 22.1919 426.299 23.1903 427.795 23.1903C429.039 23.1903 429.685 22.5617 429.685 21.7544C429.685 21.0765 429.187 20.5341 428.294 20.3431L426.829 20.035C425.247 19.7145 424.188 18.6668 424.188 17.1138C424.188 15.3698 425.788 13.9277 427.721 13.9277C430.172 13.9277 431.126 15.4253 431.36 16.5839L429.778 17.083Z" fill="black"/>
<path d="M434.789 24.5583H433.09V13.9338H434.789V18.0998C435.275 17.4712 436.082 17.2062 436.827 17.2062C438.587 17.2062 439.437 18.4696 439.437 20.0411V24.5645H437.738V20.3369C437.738 19.4556 437.344 18.7531 436.273 18.7531C435.337 18.7531 434.82 19.4556 434.789 20.3677V24.5645V24.5583Z" fill="black"/>
<path d="M447.828 22.5124C447.446 23.7572 446.319 24.7741 444.602 24.7741C442.669 24.7741 440.951 23.3628 440.951 20.9409C440.951 18.6792 442.626 17.1816 444.423 17.1816C446.621 17.1816 447.914 18.636 447.914 20.8977C447.914 21.1751 447.883 21.4093 447.871 21.4401H442.65C442.693 22.5247 443.543 23.3012 444.602 23.3012C445.661 23.3012 446.153 22.7589 446.393 22.0502L447.828 22.5062V22.5124ZM446.202 20.1952C446.172 19.3571 445.618 18.6114 444.442 18.6114C443.371 18.6114 442.755 19.431 442.699 20.1952H446.202Z" fill="black"/>
<path d="M450.376 13.7798C450.992 13.7798 451.491 14.279 451.491 14.8952C451.491 15.5115 450.992 15.9984 450.376 15.9984C449.761 15.9984 449.274 15.5115 449.274 14.8952C449.274 14.279 449.773 13.7798 450.376 13.7798ZM449.539 24.5522V17.4034H451.226V24.5522H449.539Z" fill="black"/>
<path d="M457.178 20.4294L460.17 24.5522H458.089L455.99 21.6311L455.11 22.5555V24.5522H453.423V13.9277H455.11V20.3L457.849 17.4097H460.108L457.178 20.4355V20.4294Z" fill="black"/>
<path d="M463.1 24.5583H461.401V13.9338H463.1V18.0998C463.587 17.4712 464.393 17.2062 465.138 17.2062C466.899 17.2062 467.748 18.4696 467.748 20.0411V24.5645H466.049V20.3369C466.049 19.4556 465.655 18.7531 464.584 18.7531C463.648 18.7531 463.131 19.4556 463.1 20.3677V24.5645V24.5583Z" fill="black"/>
<path d="M423.572 38.3504L425.29 37.9991V38.9666C425.29 40.1869 425.979 40.7292 426.89 40.7292C427.802 40.7292 428.417 40.1006 428.417 39.0406V31.7625H430.178V38.9975C430.178 40.8463 428.885 42.3869 426.909 42.3869C424.933 42.3869 423.578 41.0496 423.578 39.0283V38.3504H423.572Z" fill="black"/>
<path d="M434.087 38.0731L435.921 37.7958C436.334 37.7403 436.451 37.5308 436.451 37.2843C436.451 36.6803 436.038 36.1997 435.103 36.1997C434.167 36.1997 433.711 36.7728 433.638 37.4938L432.086 37.1425C432.215 35.91 433.33 34.8069 435.09 34.8069C437.288 34.8069 438.125 36.0579 438.125 37.4753V41.025C438.125 41.6721 438.199 42.0974 438.212 42.1713H436.629C436.617 42.1282 436.556 41.8324 436.556 41.2592C436.217 41.8015 435.515 42.387 434.358 42.387C432.862 42.387 431.938 41.3578 431.938 40.2301C431.938 38.9544 432.874 38.2518 434.093 38.0731H434.087ZM436.445 39.2009V38.8804L434.586 39.1577C434.056 39.244 433.631 39.5398 433.631 40.1253C433.631 40.6121 434.001 41.0497 434.672 41.0497C435.626 41.0497 436.445 40.5937 436.445 39.2009Z" fill="black"/>
<path d="M440.169 42.1653V31.5408H441.843V35.8978C442.164 35.337 442.988 34.8255 444.084 34.8255C446.227 34.8255 447.384 36.4524 447.384 38.5539C447.384 40.6554 446.11 42.3378 444.029 42.3378C443.019 42.3378 442.237 41.9003 441.831 41.21V42.1653H440.175H440.169ZM443.746 36.3353C442.662 36.3353 441.825 37.1427 441.825 38.5662C441.825 39.9898 442.662 40.828 443.746 40.828C444.829 40.828 445.666 39.9775 445.666 38.5662C445.666 37.155 444.872 36.3353 443.746 36.3353Z" fill="black"/>
<path d="M455.344 40.1254C454.962 41.3703 453.836 42.3871 452.118 42.3871C450.185 42.3871 448.468 40.9759 448.468 38.5539C448.468 36.2922 450.142 34.7947 451.94 34.7947C454.138 34.7947 455.43 36.2491 455.43 38.5108C455.43 38.7881 455.4 39.0223 455.387 39.0531H450.167C450.21 40.1377 451.059 40.9142 452.118 40.9142C453.177 40.9142 453.67 40.3719 453.91 39.6632L455.344 40.1192V40.1254ZM453.719 37.8082C453.688 36.9701 453.134 36.2244 451.958 36.2244C450.887 36.2244 450.272 37.0441 450.216 37.8082H453.719Z" fill="black"/>
<path d="M461.242 36.7111C461.051 36.6803 460.86 36.6679 460.681 36.6679C459.364 36.6679 458.761 37.4321 458.761 38.7694V42.1774H457.062V35.0287H458.718V36.1749C459.056 35.3984 459.844 34.9424 460.786 34.9424C460.989 34.9424 461.168 34.9732 461.242 34.9855V36.7172V36.7111Z" fill="black"/>
<path d="M472.545 39.5583H468.149L467.183 42.1712H465.317L469.362 31.7625H471.4L475.444 42.1712H473.524L472.539 39.5583H472.545ZM468.765 37.9313H471.929L470.347 33.6729L468.765 37.9313Z" fill="black"/>
<path d="M476.693 42.1653V31.5408H478.392V42.1653H476.693Z" fill="black"/>
<path d="M480.153 38.6339V37.124H484.29V38.6339H480.153Z" fill="black"/>
<path d="M491.929 39.5583H487.534L486.567 42.1712H484.702L488.747 31.7625H490.784L494.829 42.1712H492.908L491.923 39.5583H491.929ZM488.15 37.9313H491.314L489.732 33.6729L488.15 37.9313Z" fill="black"/>
<path d="M497.778 42.1653H496.079V31.5408H497.778V35.7068C498.265 35.0782 499.071 34.8132 499.816 34.8132C501.577 34.8132 502.426 36.0765 502.426 37.648V42.1714H500.727V37.9438C500.727 37.0625 500.333 36.36 499.262 36.36C498.326 36.36 497.809 37.0625 497.778 37.9746V42.1714V42.1653Z" fill="black"/>
<path d="M504.495 42.1651V35.0164H506.12V35.9284C506.532 35.1951 507.425 34.813 508.232 34.813C509.167 34.813 509.992 35.2382 510.374 36.0763C510.934 35.1396 511.765 34.813 512.689 34.813C513.981 34.813 515.213 35.6326 515.213 37.5307V42.1712H513.569V37.8142C513.569 36.9761 513.144 36.3475 512.19 36.3475C511.297 36.3475 510.706 37.05 510.706 37.9313V42.1712H509.032V37.8142C509.032 36.9946 508.619 36.3475 507.653 36.3475C506.742 36.3475 506.169 37.0254 506.169 37.9313V42.1712H504.482L504.495 42.1651Z" fill="black"/>
<path d="M523.61 40.1254C523.228 41.3703 522.102 42.3871 520.384 42.3871C518.451 42.3871 516.733 40.9759 516.733 38.5539C516.733 36.2922 518.408 34.7947 520.205 34.7947C522.403 34.7947 523.696 36.2491 523.696 38.5108C523.696 38.7881 523.665 39.0223 523.653 39.0531H518.432C518.476 40.1377 519.325 40.9142 520.384 40.9142C521.443 40.9142 521.935 40.3719 522.175 39.6632L523.61 40.1192V40.1254ZM521.985 37.8082C521.954 36.9701 521.4 36.2244 520.224 36.2244C519.153 36.2244 518.537 37.0441 518.482 37.8082H521.985Z" fill="black"/>
<path d="M531.926 40.8648C531.926 41.5119 531.987 42.0542 532 42.1713H530.375C530.344 42.0111 530.301 41.5427 530.301 41.2469C529.962 41.8508 529.217 42.35 528.201 42.35C526.151 42.35 524.772 40.7354 524.772 38.5784C524.772 36.4215 526.164 34.8377 528.177 34.8377C529.42 34.8377 530.054 35.4108 530.276 35.8669V31.553H531.932V40.871L531.926 40.8648ZM528.392 40.8525C529.507 40.8525 530.282 39.9281 530.282 38.56C530.282 37.1918 529.519 36.3414 528.405 36.3414C527.29 36.3414 526.472 37.2042 526.472 38.5723C526.472 39.9404 527.235 40.8463 528.392 40.8463V40.8525Z" fill="black"/>
<path d="M423.898 54.5892C423.898 51.1998 426.435 49.1599 429.131 49.1599C431.828 49.1599 433.342 50.7129 433.81 52.5371L432.154 53.0979C431.846 51.8345 430.879 50.8238 429.131 50.8238C427.383 50.8238 425.702 52.0687 425.702 54.5954C425.702 57.1221 427.377 58.3238 429.15 58.3238C430.923 58.3238 431.889 57.2084 432.246 56.0313L433.859 56.5613C433.391 58.3238 431.809 60.0124 429.15 60.0124C426.349 60.0124 423.898 57.9849 423.898 54.5954V54.5892Z" fill="black"/>
<path d="M437.823 59.9876C436.124 59.9876 435.127 58.7243 435.127 57.1405V52.6356H436.826V56.8324C436.826 57.7136 437.238 58.4593 438.26 58.4593C439.282 58.4593 439.756 57.7999 439.756 56.857V52.6294H441.455V58.4716C441.455 59.0571 441.499 59.5131 441.529 59.7781H439.904C439.873 59.6179 439.843 59.2789 439.843 58.9831C439.492 59.6302 438.654 59.9815 437.817 59.9815L437.823 59.9876Z" fill="black"/>
<path d="M443.66 59.7844V49.1599H445.359V59.7844H443.66Z" fill="black"/>
<path d="M449.717 52.6356H451.201V54.1454H449.717V57.461C449.717 58.0896 449.994 58.3546 450.628 58.3546C450.862 58.3546 451.139 58.3114 451.213 58.2929V59.7042C451.108 59.7473 450.788 59.8644 450.173 59.8644C448.855 59.8644 448.03 59.0694 448.03 57.7383V54.1393H446.713V52.6294H447.082C447.846 52.6294 448.184 52.1426 448.184 51.514V50.4417H449.723V52.6294L449.717 52.6356Z" fill="black"/>
<path d="M455.584 59.9876C453.885 59.9876 452.888 58.7243 452.888 57.1405V52.6356H454.587V56.8324C454.587 57.7136 454.999 58.4593 456.021 58.4593C457.043 58.4593 457.517 57.7999 457.517 56.857V52.6294H459.216V58.4716C459.216 59.0571 459.259 59.5131 459.29 59.7781H457.665C457.634 59.6179 457.603 59.2789 457.603 58.9831C457.252 59.6302 456.415 59.9815 455.578 59.9815L455.584 59.9876Z" fill="black"/>
<path d="M465.594 54.3241C465.403 54.2933 465.212 54.281 465.034 54.281C463.716 54.281 463.113 55.0451 463.113 56.3825V59.7904H461.414V52.6417H463.07V53.788C463.409 53.0115 464.197 52.5554 465.139 52.5554C465.342 52.5554 465.52 52.5862 465.594 52.5986V54.3303V54.3241Z" fill="black"/>
<path d="M468.746 55.6862L470.581 55.4088C470.993 55.3534 471.11 55.1438 471.11 54.8973C471.11 54.2934 470.698 53.8127 469.762 53.8127C468.826 53.8127 468.371 54.3858 468.297 55.1069L466.745 54.7556C466.875 53.523 467.989 52.4199 469.75 52.4199C471.947 52.4199 472.785 53.671 472.785 55.0884V58.6381C472.785 59.2852 472.858 59.7104 472.871 59.7843H471.289C471.276 59.7412 471.215 59.4454 471.215 58.8723C470.876 59.4146 470.174 60 469.017 60C467.521 60 466.598 58.9709 466.598 57.8431C466.598 56.5674 467.533 55.8649 468.752 55.6862H468.746ZM471.104 56.8139V56.4935L469.245 56.7708C468.715 56.8571 468.291 57.1529 468.291 57.7383C468.291 58.2252 468.66 58.6627 469.331 58.6627C470.285 58.6627 471.104 58.2067 471.104 56.8139Z" fill="black"/>
<path d="M474.834 59.7844V49.1599H476.533V59.7844H474.834Z" fill="black"/>
<path d="M481.883 54.5892C481.883 51.1998 484.419 49.1599 487.116 49.1599C489.812 49.1599 491.326 50.7129 491.794 52.5371L490.138 53.0979C489.83 51.8345 488.864 50.8238 487.116 50.8238C485.367 50.8238 483.687 52.0687 483.687 54.5954C483.687 57.1221 485.361 58.3238 487.134 58.3238C488.907 58.3238 489.873 57.2084 490.231 56.0313L491.843 56.5613C491.376 58.3238 489.793 60.0124 487.134 60.0124C484.333 60.0124 481.883 57.9849 481.883 54.5954V54.5892Z" fill="black"/>
<path d="M499.538 57.7445C499.157 58.9894 498.03 60.0063 496.313 60.0063C494.38 60.0063 492.662 58.595 492.662 56.1731C492.662 53.9114 494.337 52.4138 496.134 52.4138C498.332 52.4138 499.625 53.8682 499.625 56.1299C499.625 56.4072 499.594 56.6414 499.582 56.6722H494.361C494.404 57.7569 495.254 58.5334 496.313 58.5334C497.372 58.5334 497.864 57.9911 498.104 57.2823L499.538 57.7384V57.7445ZM497.913 55.4274C497.882 54.5892 497.328 53.8436 496.153 53.8436C495.081 53.8436 494.466 54.6632 494.41 55.4274H497.913Z" fill="black"/>
<path d="M502.956 59.7842H501.257V52.6355H502.913V53.5907C503.381 52.7711 504.23 52.4321 505.024 52.4321C506.767 52.4321 507.604 53.6955 507.604 55.267V59.7904H505.905V55.5628C505.905 54.6815 505.511 53.979 504.44 53.979C503.473 53.979 502.956 54.7247 502.956 55.6675V59.7904V59.7842Z" fill="black"/>
<path d="M511.826 52.6356H513.31V54.1454H511.826V57.461C511.826 58.0896 512.103 58.3546 512.738 58.3546C512.971 58.3546 513.249 58.3114 513.322 58.2929V59.7042C513.218 59.7473 512.898 59.8644 512.282 59.8644C510.965 59.8644 510.14 59.0694 510.14 57.7383V54.1393H508.822V52.6294H509.192C509.955 52.6294 510.294 52.1426 510.294 51.514V50.4417H511.833V52.6294L511.826 52.6356Z" fill="black"/>
<path d="M519.097 54.3241C518.906 54.2933 518.715 54.281 518.537 54.281C517.219 54.281 516.616 55.0451 516.616 56.3825V59.7904H514.917V52.6417H516.573V53.788C516.912 53.0115 517.7 52.5554 518.641 52.5554C518.845 52.5554 519.023 52.5862 519.097 52.5986V54.3303V54.3241Z" fill="black"/>
<path d="M526.767 57.7445C526.385 58.9894 525.259 60.0063 523.541 60.0063C521.608 60.0063 519.891 58.595 519.891 56.1731C519.891 53.9114 521.565 52.4138 523.363 52.4138C525.56 52.4138 526.853 53.8682 526.853 56.1299C526.853 56.4072 526.822 56.6414 526.81 56.6722H521.59C521.633 57.7569 522.482 58.5334 523.541 58.5334C524.6 58.5334 525.093 57.9911 525.333 57.2823L526.767 57.7384V57.7445ZM525.142 55.4274C525.111 54.5892 524.557 53.8436 523.381 53.8436C522.31 53.8436 521.694 54.6632 521.639 55.4274H525.142Z" fill="black"/>
</g>
<defs>
<clipPath id="clip0_474_13663">
<rect width="532" height="60" fill="black"/>
</clipPath>
</defs>
</svg>
